<?xml version="1.0" encoding="UTF-8" standalone="no"?>
<!-- Created with Inkscape (http://www.inkscape.org/) -->

<svg
   width="210mm"
   height="297mm"
   viewBox="0 0 210 297"
   version="1.1"
   id="svg1"
   inkscape:version="1.3 (0e150ed6c4, 2023-07-21)"
   sodipodi:docname="Model.svg"
   xmlns:inkscape="http://www.inkscape.org/namespaces/inkscape"
   xmlns:sodipodi="http://sodipodi.sourceforge.net/DTD/sodipodi-0.dtd"
   xmlns="http://www.w3.org/2000/svg"
   xmlns:svg="http://www.w3.org/2000/svg">
  <sodipodi:namedview
     id="namedview1"
     pagecolor="#ffffff"
     bordercolor="#000000"
     borderopacity="0.25"
     inkscape:showpageshadow="2"
     inkscape:pageopacity="0.0"
     inkscape:pagecheckerboard="0"
     inkscape:deskcolor="#d1d1d1"
     inkscape:document-units="mm"
     inkscape:zoom="0.72782688"
     inkscape:cx="397.07245"
     inkscape:cy="561.25984"
     inkscape:window-width="2560"
     inkscape:window-height="1009"
     inkscape:window-x="-8"
     inkscape:window-y="-8"
     inkscape:window-maximized="1"
     inkscape:current-layer="layer1" />
  <defs
     id="defs1" />
  <g
     inkscape:label="Ebene 1"
     inkscape:groupmode="layer"
     id="layer1">
    <rect
       style="fill:#1e7fc9;stroke-width:0.264999"
       id="rect1"
       width="19.993879"
       height="26.173805"
       x="54.892288"
       y="219.56915" />
    <ellipse
       style="fill:#1e7fc9;stroke-width:0.264999"
       id="path1"
       cx="51.257038"
       cy="173.94676"
       rx="9.4516525"
       ry="8.9063644" />
    <ellipse
       style="fill:#1e7fc9;stroke-width:0.264999"
       id="path1-1"
       cx="85.414879"
       cy="131.10376"
       rx="9.4516525"
       ry="8.9063644" />
    <ellipse
       style="fill:#1e7fc9;stroke-width:0.264999"
       id="path1-1-6"
       cx="96.676292"
       cy="133.03482"
       rx="9.4516525"
       ry="8.9063644" />
    <ellipse
       style="fill:#1e7fc9;stroke-width:0.264999"
       id="path1-1-3"
       cx="126.62539"
       cy="152.57289"
       rx="9.4516525"
       ry="8.9063644" />
    <ellipse
       style="fill:#1e7fc9;stroke-width:0.211822"
       id="path1-1-1"
       cx="136.21266"
       cy="158.59383"
       rx="7.9975524"
       ry="6.725214" />
    <path
       style="fill:none;fill-rule:evenodd;stroke:#000000;stroke-width:0.264583px;stroke-linecap:butt;stroke-linejoin:miter;stroke-opacity:1"
       d="M 61.850473,219.56915 53.277248,182.64713"
       id="path2"
       inkscape:connector-type="polyline"
       inkscape:connector-curvature="0"
       inkscape:connection-start="#rect1"
       inkscape:connection-end="#path1" />
    <path
       style="display:inline;fill:none;fill-rule:evenodd;stroke:#000000;stroke-width:0.264583px;stroke-linecap:butt;stroke-linejoin:miter;stroke-opacity:1"
       d="m 56.901445,166.80306 29.254002,-37.0246"
       id="path3"
       inkscape:connector-type="polyline"
       inkscape:connector-curvature="0"
       inkscape:connection-start="#path1" />
    <path
       style="fill:none;fill-rule:evenodd;stroke:#000000;stroke-width:0.264583px;stroke-linecap:butt;stroke-linejoin:miter;stroke-opacity:1"
       d="m 104.4472,138.10437 14.40728,9.39897"
       id="path4"
       inkscape:connector-type="polyline"
       inkscape:connector-curvature="0"
       inkscape:connection-start="#path1-1-6"
       inkscape:connection-end="#path1-1-3" />
    <circle
       id="path5"
       style="fill:#1e7fc9;stroke:#000000;stroke-width:0.264583"
       cx="65.434517"
       cy="249.74173"
       r="0.048497438" />
    <path
       style="fill:#ff0000;stroke-width:0.26499901;stroke-dasharray:none"
       d="m 64.343941,246.83354 c -0.05107,0.83477 5.979646,0.44514 6.543452,0.72704 0.306549,0.15328 0.420497,0.57378 0.727049,0.72705 0.711134,0.35557 3.837527,0 4.725826,0 3.3929,0 6.785803,0 10.178703,0 0.886214,0 6.166766,0.37669 6.906977,-0.36352"
       id="path7" />
    <path
       style="fill:#ff0000;stroke-width:1;stroke-dasharray:none"
       d="m 67.25214,247.92411 c 9.117894,-1.0924 18.419839,-0.72705 27.627908,-0.72705"
       id="path8" />
    <path
       style="fill:#0000ff;stroke-width:1;stroke-dasharray:none"
       d="m 65.434516,246.47001 c -0.24235,-0.84823 -0.569243,-1.67674 -0.727051,-2.54468 -0.304451,-1.67447 0,-3.75348 0,-5.45287 0,-3.8776 0,-7.7552 0,-11.6328 0,-0.46331 -0.404757,-3.95755 0,-4.36231 0.08568,-0.0857 0.24235,0 0.363527,0"
       id="path9" />
    <path
       style="fill:#0000ff;stroke-width:1;stroke-dasharray:none"
       d="m 61.435739,249.37821 c 0.244104,-0.96183 -0.550461,-3.31329 0.363526,-3.99878 1.246421,-0.93481 1.251178,-1.30471 2.181151,-2.54467 0.799711,-1.06628 4.758116,-1.38952 5.452875,0 0.143539,0.28707 -0.102193,0.78399 0,1.09057 0.249081,0.74725 0.644319,1.7023 0.363527,2.54468 -0.163163,0.48948 -0.413031,1.86713 -0.727051,2.18115 -0.08568,0.0857 -0.277842,-0.0857 -0.363525,0 -0.191595,0.19159 -0.171931,0.53545 -0.363526,0.72705 -0.191593,0.1916 -0.535456,0.17193 -0.727049,0.36352 -0.08568,0.0857 0.08568,0.27785 0,0.36353 -0.08568,0.0857 -0.255143,-0.0542 -0.363527,0 -1.435163,0.71758 -1.715593,0.88224 -3.271724,0.36353 -0.114958,-0.0383 -0.277841,0.0857 -0.363527,0 -0.01109,-0.0111 0,-3.53841 0,-3.99878"
       id="path10" />
  </g>
</svg>
